<?xml version="1.0" encoding="UTF-8" standalone="no"?>
<!-- Created with Inkscape (http://www.inkscape.org/) -->

<svg
   xmlns:dc="http://purl.org/dc/elements/1.1/"
   xmlns:cc="http://creativecommons.org/ns#"
   xmlns:rdf="http://www.w3.org/1999/02/22-rdf-syntax-ns#"
   xmlns:svg="http://www.w3.org/2000/svg"
   xmlns="http://www.w3.org/2000/svg"
   xmlns:sodipodi="http://sodipodi.sourceforge.net/DTD/sodipodi-0.dtd"
   xmlns:inkscape="http://www.inkscape.org/namespaces/inkscape"
   width="150"
   height="20"
   viewBox="0 0 150 20"
   id="svg2"
   version="1.1"
   inkscape:version="0.91 r13725"
   sodipodi:docname="mail.svg">
  <defs
     id="defs4" />
  <sodipodi:namedview
     id="base"
     pagecolor="#ffffff"
     bordercolor="#666666"
     borderopacity="1.0"
     inkscape:pageopacity="0.0"
     inkscape:pageshadow="2"
     inkscape:zoom="3.959798"
     inkscape:cx="61.062846"
     inkscape:cy="-17.484871"
     inkscape:document-units="px"
     inkscape:current-layer="text3336"
     showgrid="false"
     units="px"
     inkscape:window-width="1920"
     inkscape:window-height="1017"
     inkscape:window-x="-8"
     inkscape:window-y="-8"
     inkscape:window-maximized="1" />
  <metadata
     id="metadata7">
    <rdf:RDF>
      <cc:Work
         rdf:about="">
        <dc:format>image/svg+xml</dc:format>
        <dc:type
           rdf:resource="http://purl.org/dc/dcmitype/StillImage" />
        <dc:title></dc:title>
      </cc:Work>
    </rdf:RDF>
  </metadata>
  <g
     inkscape:label="Calque 1"
     inkscape:groupmode="layer"
     id="layer1"
     transform="translate(0,-1032.3622)">
    <g
       style="font-style:normal;font-weight:normal;font-size:12.5px;line-height:125%;font-family:sans-serif;letter-spacing:0px;word-spacing:0px;fill:#000000;fill-opacity:1;stroke:none;stroke-width:1px;stroke-linecap:butt;stroke-linejoin:miter;stroke-opacity:1"
       id="text3336">
      <g
         id="g3375"
         transform="translate(-37.375644,950.55354)">
        <path
           id="path3341"
           d="m 51.860352,91.093369 0,4.125976 -1.123047,0 0,-4.089355 q 0,-0.970459 -0.378418,-1.452637 -0.378418,-0.482178 -1.135254,-0.482178 -0.909424,0 -1.434326,0.579834 -0.524903,0.579834 -0.524903,1.580811 l 0,3.863525 -1.12915,0 0,-6.835937 1.12915,0 0,1.062011 q 0.402832,-0.616455 0.946045,-0.921631 0.549317,-0.305175 1.263428,-0.305175 1.177978,0 1.782227,0.732422 0.604248,0.726318 0.604248,2.142334 z"
           inkscape:connector-curvature="0" />
        <path
           id="path3343"
           d="m 58.61084,91.722031 q 0,-1.220703 -0.506592,-1.89209 -0.500488,-0.671387 -1.409912,-0.671387 -0.90332,0 -1.409912,0.671387 -0.500488,0.671387 -0.500488,1.89209 0,1.214599 0.500488,1.885986 0.506592,0.671387 1.409912,0.671387 0.909424,0 1.409912,-0.671387 0.506592,-0.671387 0.506592,-1.885986 z m 1.123047,2.648925 q 0,1.745606 -0.775147,2.593995 -0.775146,0.854492 -2.374267,0.854492 -0.592041,0 -1.116944,-0.09155 -0.524902,-0.08545 -1.019287,-0.268555 l 0,-1.092529 q 0.494385,0.268555 0.976563,0.396729 0.482177,0.128173 0.982666,0.128173 1.104736,0 1.654052,-0.579834 0.549317,-0.57373 0.549317,-1.739502 l 0,-0.555419 q -0.347901,0.604248 -0.891113,0.90332 -0.543213,0.299072 -1.300049,0.299072 -1.257324,0 -2.026367,-0.958252 -0.769043,-0.958252 -0.769043,-2.539062 0,-1.586914 0.769043,-2.545166 0.769043,-0.958252 2.026367,-0.958252 0.756836,0 1.300049,0.299072 0.543212,0.299072 0.891113,0.90332 l 0,-1.037597 1.123047,0 0,5.987548 z"
           inkscape:connector-curvature="0" />
        <path
           id="path3345"
           d="m 66.966553,88.645859 0,1.049804 q -0.476074,-0.262451 -0.958252,-0.390625 -0.476074,-0.134277 -0.964356,-0.134277 -1.092529,0 -1.696777,0.695801 -0.604248,0.689697 -0.604248,1.940918 0,1.251221 0.604248,1.947021 0.604248,0.689698 1.696777,0.689698 0.488282,0 0.964356,-0.128174 0.482178,-0.134278 0.958252,-0.396729 l 0,1.037598 q -0.469971,0.219726 -0.976563,0.32959 -0.500488,0.109863 -1.068115,0.109863 -1.544189,0 -2.453613,-0.970459 -0.909424,-0.970459 -0.909424,-2.618408 0,-1.672363 0.915527,-2.630615 0.921631,-0.958252 2.520752,-0.958252 0.518799,0 1.013184,0.109863 0.494385,0.10376 0.958252,0.317383 z"
           inkscape:connector-curvature="0" />
        <path
           id="path3347"
           d="m 69.102783,86.106796 4.840088,0 0,1.037598 -3.710937,0 0,2.233887 q 0.268554,-0.09155 0.537109,-0.134278 0.268555,-0.04883 0.537109,-0.04883 1.525879,0 2.416993,0.836182 0.891113,0.836181 0.891113,2.264404 0,1.470947 -0.915528,2.288818 -0.915527,0.811768 -2.581787,0.811768 -0.57373,0 -1.171875,-0.09766 -0.592041,-0.09766 -1.226806,-0.292969 l 0,-1.239014 q 0.549316,0.299073 1.135254,0.445557 0.585937,0.146484 1.239013,0.146484 1.055908,0 1.672364,-0.55542 0.616455,-0.555419 0.616455,-1.507568 0,-0.952148 -0.616455,-1.507568 -0.616456,-0.55542 -1.672364,-0.55542 -0.494384,0 -0.988769,0.109863 -0.488281,0.109863 -1.000977,0.341797 l 0,-4.577637 z"
           inkscape:connector-curvature="0" />
        <path
           id="path3349"
           d="m 80.437012,87.181015 -3.112793,4.864502 3.112793,0 0,-4.864502 z m -0.323487,-1.074219 1.550293,0 0,5.938721 1.300049,0 0,1.025391 -1.300049,0 0,2.148437 -1.226806,0 0,-2.148437 -4.11377,0 0,-1.190186 3.790283,-5.773926 z"
           inkscape:connector-curvature="0" />
        <path
           id="path3351"
           d="m 86.070557,94.181747 4.302978,0 0,1.037598 -5.786133,0 0,-1.037598 q 0.701905,-0.726318 1.910401,-1.947021 1.214599,-1.226807 1.525879,-1.580811 0.592041,-0.665283 0.823974,-1.123046 0.238037,-0.463868 0.238037,-0.909424 0,-0.726319 -0.512695,-1.184082 -0.506592,-0.457764 -1.324463,-0.457764 -0.579834,0 -1.226806,0.201416 -0.64087,0.201416 -1.373292,0.610352 l 0,-1.245118 q 0.744629,-0.299072 1.391602,-0.45166 0.646973,-0.152588 1.184082,-0.152588 1.416016,0 2.258301,0.708008 0.842285,0.708008 0.842285,1.89209 0,0.561523 -0.213623,1.068115 -0.20752,0.500489 -0.762939,1.184082 -0.152588,0.177002 -0.970459,1.025391 -0.817872,0.842285 -2.307129,2.36206 z"
           inkscape:connector-curvature="0" />
        <path
           id="path3353"
           d="m 92.65625,86.106796 5.859375,0 0,0.524903 -3.308105,8.587646 -1.287842,0 3.112793,-8.074951 -4.376221,0 0,-1.037598 z"
           inkscape:connector-curvature="0" />
        <path
           id="path3355"
           d="m 104.24072,91.941757 q 0,0.872803 0.43335,1.373291 0.43335,0.494385 1.19019,0.494385 0.75073,0 1.17798,-0.500488 0.43335,-0.500489 0.43335,-1.367188 0,-0.854492 -0.43946,-1.35498 -0.43945,-0.506592 -1.18408,-0.506592 -0.73852,0 -1.17798,0.500488 -0.43335,0.500488 -0.43335,1.361084 z m 3.32642,1.824951 q -0.36621,0.469971 -0.84229,0.695801 -0.46997,0.219727 -1.09863,0.219727 -1.0498,0 -1.70898,-0.756836 -0.65308,-0.76294 -0.65308,-1.983643 0,-1.220703 0.65918,-1.983642 0.65918,-0.76294 1.70288,-0.76294 0.62866,0 1.10474,0.231934 0.47607,0.22583 0.83618,0.689697 l 0,-0.799561 0.8728,0 0,4.492188 q 0.89111,-0.134277 1.3916,-0.811768 0.50659,-0.683593 0.50659,-1.763916 0,-0.653076 -0.19531,-1.226806 -0.18921,-0.573731 -0.57983,-1.062012 -0.63477,-0.799561 -1.55029,-1.220703 -0.90943,-0.427246 -1.98365,-0.427246 -0.75073,0 -1.44043,0.201416 -0.68969,0.195312 -1.27563,0.585937 -0.95825,0.622559 -1.50147,1.635743 -0.53711,1.00708 -0.53711,2.185058 0,0.970459 0.3479,1.818848 0.35401,0.848388 1.01929,1.495361 0.64087,0.634766 1.48316,0.964356 0.84228,0.335693 1.80053,0.335693 0.78736,0 1.54419,-0.268555 0.76294,-0.262451 1.39771,-0.756836 l 0.54931,0.677491 q -0.76294,0.592041 -1.66626,0.90332 -0.89721,0.317383 -1.82495,0.317383 -1.12915,0 -2.13012,-0.402832 -1.00098,-0.396729 -1.78223,-1.159668 -0.78125,-0.76294 -1.19019,-1.763916 -0.40893,-1.00708 -0.40893,-2.160645 0,-1.11084 0.41504,-2.11792 0.41504,-1.00708 1.18408,-1.770019 0.78735,-0.775147 1.81885,-1.184082 1.03149,-0.415039 2.18506,-0.415039 1.29394,0 2.39868,0.531005 1.11084,0.531006 1.86157,1.507569 0.45776,0.598144 0.6958,1.300049 0.24414,0.701904 0.24414,1.452636 0,1.605225 -0.97046,2.532959 -0.97046,0.927735 -2.67944,0.964356 l 0,-0.939942 z"
           inkscape:connector-curvature="0" />
        <path
           id="path3357"
           d="m 117.76611,91.722031 q 0,-1.220703 -0.50659,-1.89209 -0.50049,-0.671387 -1.40991,-0.671387 -0.90332,0 -1.40991,0.671387 -0.50049,0.671387 -0.50049,1.89209 0,1.214599 0.50049,1.885986 0.50659,0.671387 1.40991,0.671387 0.90942,0 1.40991,-0.671387 0.50659,-0.671387 0.50659,-1.885986 z m 1.12305,2.648925 q 0,1.745606 -0.77515,2.593995 -0.77514,0.854492 -2.37426,0.854492 -0.59204,0 -1.11695,-0.09155 -0.5249,-0.08545 -1.01928,-0.268555 l 0,-1.092529 q 0.49438,0.268555 0.97656,0.396729 0.48218,0.128173 0.98266,0.128173 1.10474,0 1.65406,-0.579834 0.54931,-0.57373 0.54931,-1.739502 l 0,-0.555419 q -0.3479,0.604248 -0.89111,0.90332 -0.54321,0.299072 -1.30005,0.299072 -1.25732,0 -2.02637,-0.958252 -0.76904,-0.958252 -0.76904,-2.539062 0,-1.586914 0.76904,-2.545166 0.76905,-0.958252 2.02637,-0.958252 0.75684,0 1.30005,0.299072 0.54321,0.299072 0.89111,0.90332 l 0,-1.037597 1.12305,0 0,5.987548 z"
           inkscape:connector-curvature="0" />
        <path
           id="path3359"
           d="m 126.52466,89.695663 q 0.42114,-0.756835 1.00708,-1.116943 0.58594,-0.360107 1.37939,-0.360107 1.06812,0 1.64795,0.750732 0.57984,0.744629 0.57984,2.124024 l 0,4.125976 -1.12915,0 0,-4.089355 q 0,-0.982666 -0.3479,-1.458741 -0.34791,-0.476074 -1.06202,-0.476074 -0.8728,0 -1.37939,0.579834 -0.50659,0.579834 -0.50659,1.580811 l 0,3.863525 -1.12915,0 0,-4.089355 q 0,-0.98877 -0.3479,-1.458741 -0.3479,-0.476074 -1.07422,-0.476074 -0.8606,0 -1.36719,0.585938 -0.50659,0.579834 -0.50659,1.574707 l 0,3.863525 -1.12915,0 0,-6.835937 1.12915,0 0,1.062011 q 0.38452,-0.628662 0.92163,-0.927734 0.53711,-0.299072 1.27563,-0.299072 0.74463,0 1.26343,0.378418 0.5249,0.378418 0.77515,1.098632 z"
           inkscape:connector-curvature="0" />
        <path
           id="path3361"
           d="m 136.4917,91.783066 q -1.36108,0 -1.88599,0.311279 -0.5249,0.311279 -0.5249,1.062012 0,0.598144 0.39063,0.952148 0.39672,0.347901 1.07421,0.347901 0.93384,0 1.49537,-0.65918 0.56762,-0.665283 0.56762,-1.763916 l 0,-0.250244 -1.11694,0 z m 2.23999,-0.463867 0,3.900146 -1.12305,0 0,-1.037598 q -0.38452,0.622559 -0.95825,0.921631 -0.57373,0.292969 -1.40381,0.292969 -1.0498,0 -1.67236,-0.585937 -0.61646,-0.592041 -0.61646,-1.580811 0,-1.153564 0.76905,-1.739502 0.77514,-0.585937 2.30713,-0.585937 l 1.5747,0 0,-0.109864 q 0,-0.775146 -0.51269,-1.196289 -0.50659,-0.427246 -1.42823,-0.427246 -0.58593,0 -1.14135,0.140381 -0.55542,0.140381 -1.06812,0.421143 l 0,-1.037598 q 0.61646,-0.238037 1.19629,-0.354004 0.57983,-0.12207 1.12915,-0.12207 1.48316,0 2.21558,0.769043 0.73242,0.769043 0.73242,2.331543 z"
           inkscape:connector-curvature="0" />
        <path
           id="path3363"
           d="m 141.05103,88.383408 1.12304,0 0,6.835937 -1.12304,0 0,-6.835937 z m 0,-2.661133 1.12304,0 0,1.422119 -1.12304,0 0,-1.422119 z"
           inkscape:connector-curvature="0" />
        <path
           id="path3365"
           d="m 144.51782,85.722275 1.12305,0 0,9.49707 -1.12305,0 0,-9.49707 z"
           inkscape:connector-curvature="0" />
        <path
           id="path3367"
           d="m 148.14331,93.669052 1.28784,0 0,1.550293 -1.28784,0 0,-1.550293 z"
           inkscape:connector-curvature="0" />
        <path
           id="path3369"
           d="m 156.88354,88.645859 0,1.049804 q -0.47607,-0.262451 -0.95825,-0.390625 -0.47607,-0.134277 -0.96435,-0.134277 -1.09253,0 -1.69678,0.695801 -0.60425,0.689697 -0.60425,1.940918 0,1.251221 0.60425,1.947021 0.60425,0.689698 1.69678,0.689698 0.48828,0 0.96435,-0.128174 0.48218,-0.134278 0.95825,-0.396729 l 0,1.037598 q -0.46997,0.219726 -0.97656,0.32959 -0.50049,0.109863 -1.06811,0.109863 -1.54419,0 -2.45362,-0.970459 -0.90942,-0.970459 -0.90942,-2.618408 0,-1.672363 0.91553,-2.630615 0.92163,-0.958252 2.52075,-0.958252 0.5188,0 1.01318,0.109863 0.49439,0.10376 0.95825,0.317383 z"
           inkscape:connector-curvature="0" />
        <path
           id="path3371"
           d="m 161.4978,89.170761 q -0.90332,0 -1.42822,0.708008 -0.5249,0.701904 -0.5249,1.928711 0,1.226806 0.5188,1.934814 0.5249,0.701905 1.43432,0.701905 0.89722,0 1.42212,-0.708008 0.5249,-0.708008 0.5249,-1.928711 0,-1.2146 -0.5249,-1.922608 -0.5249,-0.714111 -1.42212,-0.714111 z m 0,-0.952148 q 1.46485,0 2.30103,0.952148 0.83618,0.952149 0.83618,2.636719 0,1.678467 -0.83618,2.636719 -0.83618,0.952148 -2.30103,0.952148 -1.47094,0 -2.30713,-0.952148 -0.83007,-0.958252 -0.83007,-2.636719 0,-1.68457 0.83007,-2.636719 0.83619,-0.952148 2.30713,-0.952148 z"
           inkscape:connector-curvature="0" />
        <path
           id="path3373"
           d="m 171.81274,89.695663 q 0.42115,-0.756835 1.00708,-1.116943 0.58594,-0.360107 1.3794,-0.360107 1.06811,0 1.64795,0.750732 0.57983,0.744629 0.57983,2.124024 l 0,4.125976 -1.12915,0 0,-4.089355 q 0,-0.982666 -0.3479,-1.458741 -0.3479,-0.476074 -1.06201,-0.476074 -0.8728,0 -1.3794,0.579834 -0.50659,0.579834 -0.50659,1.580811 l 0,3.863525 -1.12915,0 0,-4.089355 q 0,-0.98877 -0.3479,-1.458741 -0.3479,-0.476074 -1.07422,-0.476074 -0.86059,0 -1.36718,0.585938 -0.5066,0.579834 -0.5066,1.574707 l 0,3.863525 -1.12915,0 0,-6.835937 1.12915,0 0,1.062011 q 0.38453,-0.628662 0.92164,-0.927734 0.5371,-0.299072 1.27563,-0.299072 0.74463,0 1.26343,0.378418 0.5249,0.378418 0.77514,1.098632 z"
           inkscape:connector-curvature="0" />
      </g>
    </g>
  </g>
</svg>
